<svg width="1280" height="832" viewBox="0 0 1280 832" fill="none" xmlns="http://www.w3.org/2000/svg">
<g filter="url(#filter0_f_27_90)">
<path d="M372.41 155.034L670.195 172.221C672.334 172.344 674.409 172.994 676.236 174.113L781.296 238.455C784.716 240.549 788.911 240.948 792.664 239.536L1231.35 74.4647L1061.23 162.318C1052.44 166.855 1051.74 179.153 1059.95 184.663L1189.35 271.495C1200.51 278.985 1194.35 296.42 1180.96 295.24L895.136 270.034C893.597 269.898 892.045 270.038 890.554 270.447L593.674 351.91C592.053 352.355 590.36 352.481 588.69 352.281L228.639 309.213C213.992 307.461 213.122 286.532 227.572 283.57L412.347 245.693C421.439 243.83 425.706 233.313 420.483 225.642L372.41 155.034Z" fill="#B2F9FC"/>
<path d="M300.503 273.615C306.785 268.056 316.609 269.813 320.574 277.206L474.425 564.041C481.246 576.758 500.616 570.551 498.775 556.238L491.357 498.562C490.521 492.064 494.651 485.96 500.993 484.319L690.56 435.256C700.08 432.792 708.783 441.381 706.445 450.932L673.869 584.006C671.536 593.536 680.196 602.116 689.704 599.695L1173.22 476.576C1182.77 474.144 1186.25 462.381 1179.55 455.147L1044.18 308.917C1037.32 301.499 1024.98 304.413 1022.16 314.119L972.678 484.312C970.694 491.137 963.596 495.103 956.743 493.216L622.977 401.304C621.692 400.95 620.36 400.796 619.028 400.847L172.217 417.94C160.012 418.407 153.958 403.309 163.104 395.214L300.503 273.615Z" fill="#F5CEBE"/>
<path d="M331.308 72.2847C333.958 69.9391 337.451 68.7755 340.978 69.0626L552.924 86.3119C553.816 86.3846 554.713 86.3648 555.601 86.253L1168.25 9.14238C1182.66 7.32832 1188.75 26.926 1175.84 33.5914L1070.76 87.853C1061.98 92.3906 1061.27 104.688 1069.48 110.199L1193.52 193.432C1205 201.137 1198.11 219.064 1184.42 217.094L833.206 166.557L372.41 155.034L218.296 205.6C204.881 210.002 195.055 192.87 205.628 183.513L331.308 72.2847Z" fill="#9D84B7"/>
<path d="M334.509 518.49C341.309 512.472 352.028 515.103 355.269 523.587L444.338 756.775C445.986 761.088 449.797 764.204 454.352 764.96L861.43 832.571C876.112 835.009 882.708 814.862 869.427 808.146L693.466 719.163C683.634 714.191 684.057 700.009 694.168 695.632L1057.82 538.198C1061.88 536.44 1066.56 536.868 1070.23 539.333L1212.94 635.102C1224.04 642.55 1218.03 659.884 1204.7 658.859L622.239 614.035C621.44 613.973 620.637 613.986 619.841 614.072L212.207 658.253C199.609 659.618 192.701 643.992 202.19 635.594L334.509 518.49Z" fill="#9D84B7"/>
</g>
<defs>
<filter id="filter0_f_27_90" x="-431.339" y="-240.976" width="1912.69" height="1350" filterUnits="userSpaceOnUse" color-interpolation-filters="sRGB">
<feFlood flood-opacity="0" result="BackgroundImageFix"/>
<feBlend mode="normal" in="SourceGraphic" in2="BackgroundImageFix" result="shape"/>
<feGaussianBlur stdDeviation="125" result="effect1_foregroundBlur_27_90"/>
</filter>
</defs>
</svg>
