<svg width="66" height="18" viewBox="0 0 66 18" fill="none" xmlns="http://www.w3.org/2000/svg">
<path d="M13.004 8.651C12.0993 8.22167 11.2253 8.007 10.382 8.007C9.89133 8.007 9.508 8.09134 9.232 8.26C8.97133 8.42867 8.841 8.65867 8.841 8.95C8.841 9.24134 8.956 9.479 9.186 9.663C9.43133 9.847 9.91433 10.0463 10.635 10.261L11.325 10.468C12.2757 10.744 12.9963 11.1427 13.487 11.664C13.9777 12.1853 14.223 12.86 14.223 13.688C14.223 14.7767 13.8013 15.643 12.958 16.287C12.13 16.931 11.003 17.253 9.577 17.253C8.12033 17.253 6.87067 16.9923 5.828 16.471L6.518 14.217C6.96267 14.447 7.43033 14.6387 7.921 14.792C8.41167 14.93 8.91 14.999 9.416 14.999C10.0293 14.999 10.474 14.907 10.75 14.723C11.0413 14.5237 11.187 14.2707 11.187 13.964C11.187 13.642 11.049 13.3967 10.773 13.228C10.497 13.044 9.97567 12.8447 9.209 12.63L8.496 12.423C7.576 12.1163 6.90133 11.71 6.472 11.204C6.04267 10.698 5.828 10.0233 5.828 9.18C5.828 8.18334 6.20367 7.37067 6.955 6.742C7.70633 6.11334 8.75667 5.799 10.106 5.799C11.44 5.799 12.6207 6.03667 13.648 6.512L13.004 8.651Z" fill="#09244B"/>
<path d="M19.4801 17H16.4211V0.578003H19.4801V7.018C19.9248 6.66534 20.4308 6.374 20.9981 6.144C21.5808 5.914 22.2095 5.799 22.8841 5.799C23.5281 5.799 24.0878 5.89867 24.5631 6.098C25.0538 6.282 25.4525 6.55034 25.7591 6.903C26.0811 7.24034 26.3188 7.65434 26.4721 8.145C26.6255 8.62034 26.7021 9.14167 26.7021 9.709V17H23.6431V10.238C23.6431 9.48667 23.4898 8.95 23.1831 8.628C22.8765 8.306 22.4318 8.145 21.8491 8.145C21.4505 8.145 21.0364 8.24467 20.6071 8.444C20.1931 8.628 19.8175 8.881 19.4801 9.203V17Z" fill="#09244B"/>
<path d="M29.6988 6.995C30.3581 6.61167 31.0558 6.32034 31.7918 6.121C32.5278 5.90634 33.3098 5.799 34.1378 5.799C34.7971 5.799 35.3951 5.87567 35.9318 6.029C36.4838 6.18234 36.9514 6.42767 37.3348 6.765C37.7334 7.087 38.0324 7.50867 38.2318 8.03C38.4464 8.536 38.5538 9.14934 38.5538 9.87V17H36.1848L35.9088 15.873H35.8168C35.4641 16.3023 35.0118 16.6397 34.4598 16.885C33.9231 17.1303 33.2944 17.253 32.5738 17.253C31.9758 17.253 31.4468 17.1687 30.9868 17C30.5268 16.816 30.1358 16.5783 29.8138 16.287C29.4918 15.9803 29.2464 15.62 29.0778 15.206C28.9244 14.792 28.8478 14.3473 28.8478 13.872C28.8478 13.2433 28.9781 12.7067 29.2388 12.262C29.5148 11.802 29.8904 11.4263 30.3658 11.135C30.8411 10.8437 31.3931 10.629 32.0218 10.491C32.6658 10.353 33.3558 10.284 34.0918 10.284H35.4718V9.617C35.4718 9.111 35.3108 8.743 34.9888 8.513C34.6821 8.26767 34.2451 8.145 33.6778 8.145C33.2331 8.145 32.7731 8.214 32.2978 8.352C31.8378 8.49 31.3241 8.71234 30.7568 9.019L29.6988 6.995ZM35.4948 12.193L34.5058 12.216C33.5704 12.2467 32.9188 12.4077 32.5508 12.699C32.1828 12.975 31.9988 13.3123 31.9988 13.711C31.9988 14.2323 32.1521 14.5927 32.4588 14.792C32.7808 14.976 33.1411 15.068 33.5398 15.068C33.9384 15.068 34.3141 14.953 34.6668 14.723C35.0348 14.493 35.3108 14.2247 35.4948 13.918V12.193Z" fill="#09244B"/>
<path d="M41.3565 17V2.51H44.5075V8.605L49.4985 2.51H53.4085L48.0035 8.835L53.8685 17H49.9815L45.7035 10.813L44.5075 12.078V17H41.3565Z" fill="#09244B"/>
<path d="M61.9796 6.029H65.0386V17H62.7616L62.4396 15.758H62.3476C62.179 15.9267 61.9796 16.103 61.7496 16.287C61.535 16.4557 61.2743 16.6167 60.9676 16.77C60.6763 16.908 60.339 17.023 59.9556 17.115C59.5876 17.207 59.1736 17.253 58.7136 17.253C57.533 17.253 56.5976 16.9233 55.9076 16.264C55.233 15.6047 54.8956 14.631 54.8956 13.343V6.029H57.9546V13.09C57.9546 13.7493 58.108 14.2247 58.4146 14.516C58.7366 14.8073 59.143 14.953 59.6336 14.953C60.1856 14.953 60.6533 14.838 61.0366 14.608C61.4353 14.378 61.7496 14.1097 61.9796 13.803V6.029Z" fill="#09244B"/>
<path d="M0 6H3V17H0V6Z" fill="#09244B"/>
</svg>
